<?xml version="1.0" encoding="iso-8859-1"?>
<!-- Uploaded to: SVG Repo, www.svgrepo.com, Generator: SVG Repo Mixer Tools -->
<svg height="800px" width="800px" version="1.1" id="Layer_1" xmlns="http://www.w3.org/2000/svg" xmlns:xlink="http://www.w3.org/1999/xlink" 
	 viewBox="0 0 512 512" xml:space="preserve">
<path style="fill:#D9F4F9;" d="M326.147,8.333C311.312,38.184,287.693,66.679,256,89.731
	c-31.692-23.052-55.311-51.547-70.146-81.398H326.147z"/>
<path style="fill:#E8BB51;" d="M308.931,36.843C295.109,56.122,277.396,74.168,256,89.729
	c-21.396-15.562-39.121-33.606-52.931-52.886C203.068,36.843,308.931,36.843,308.931,36.843z"/>
<path style="fill:#D9F4F9;" d="M256,176.025c-14.834,29.851-38.454,58.346-70.147,81.398
	c-31.693-23.052-55.311-51.548-70.147-81.398H256z"/>
<path style="fill:#E8BB51;" d="M238.786,204.535c-13.822,19.28-31.535,37.325-52.931,52.886
	c-21.396-15.562-39.121-33.606-52.931-52.886L238.786,204.535L238.786,204.535z"/>
<path style="fill:#D9F4F9;" d="M396.292,176.025c-14.834,29.851-38.454,58.346-70.147,81.398
	c-31.693-23.052-55.313-51.548-70.147-81.398H396.292z"/>
<path style="fill:#E8BB51;" d="M379.078,204.535c-13.822,19.28-31.535,37.325-52.931,52.886
	c-21.397-15.562-39.121-33.606-52.931-52.886L379.078,204.535L379.078,204.535z"/>
<path style="fill:#D9F4F9;" d="M185.854,343.716c-14.834,29.851-38.454,58.346-70.147,81.398
	c-31.693-23.052-55.311-51.548-70.147-81.398H185.854z"/>
<path style="fill:#E8BB51;" d="M168.639,372.227c-13.822,19.28-31.535,37.325-52.931,52.886
	c-21.396-15.562-39.121-33.606-52.931-52.886H168.639z"/>
<path style="fill:#D9F4F9;" d="M466.439,343.716c-14.834,29.851-38.454,58.346-70.147,81.398
	c-31.693-23.052-55.311-51.548-70.147-81.398H466.439z"/>
<path style="fill:#E8BB51;" d="M449.225,372.227c-13.822,19.28-31.535,37.325-52.931,52.886
	c-21.396-15.562-39.121-33.606-52.931-52.886H449.225z"/>
<path style="fill:#D9F4F9;" d="M326.147,343.716c-14.834,29.851-38.454,58.346-70.147,81.398
	c-31.693-23.052-55.312-51.548-70.147-81.398H326.147z"/>
<path style="fill:#E8BB51;" d="M308.931,372.227c-13.822,19.28-31.535,37.325-52.931,52.886
	c-21.396-15.562-39.121-33.606-52.931-52.886H308.931z"/>
<path d="M473.901,347.426c1.283-2.583,1.14-5.647-0.379-8.099c-1.519-2.452-4.199-3.943-7.083-3.943H360.109
	c-0.304-4.326-3.901-7.742-8.303-7.742H334.48V261.6c5.577-4.2,10.996-8.617,16.135-13.191c3.438-3.06,3.743-8.328,0.683-11.764
	c-3.059-3.438-8.328-3.743-11.764-0.683c-4.282,3.812-8.768,7.518-13.386,11.06c-13.383-10.264-25.424-21.754-35.884-34.159h71.781
	c-2.351,2.788-4.778,5.537-7.294,8.237c-3.138,3.367-2.952,8.64,0.414,11.778c3.365,3.138,8.64,2.953,11.778-0.414
	c15.083-16.183,27.47-33.924,36.815-52.729c1.283-2.583,1.14-5.647-0.379-8.099c-1.519-2.452-4.199-3.943-7.083-3.943H289.963
	c-0.304-4.326-3.901-7.741-8.303-7.741h-17.326V93.9c29.892-22.513,53.806-50.728,69.276-81.858c1.283-2.583,1.14-5.647-0.379-8.099
	C331.711,1.491,329.031,0,326.147,0H185.854c-2.884,0-5.563,1.492-7.083,3.943s-1.663,5.514-0.379,8.099
	c5.02,10.1,10.951,19.906,17.691,29.338c0.078,0.119,0.161,0.234,0.246,0.35c4.475,6.238,9.298,12.314,14.479,18.189
	c3.044,3.451,8.309,3.782,11.762,0.738c3.451-3.044,3.782-8.31,0.738-11.762c-1.087-1.232-2.156-2.474-3.209-3.723h71.787
	C281.425,57.577,269.384,69.067,256,79.331c-5.051-3.874-9.943-7.944-14.598-12.146c-3.417-3.086-8.685-2.814-11.77,0.601
	c-3.084,3.417-2.816,8.685,0.601,11.77c5.533,4.995,11.391,9.799,17.433,14.35v66.046H230.34c-4.402,0-7.999,3.417-8.303,7.741
	H115.708c-2.884,0-5.563,1.492-7.083,3.943c-1.52,2.451-1.663,5.514-0.379,8.099c15.471,31.13,39.384,59.345,69.276,81.858v66.05
	h-17.326c-4.402,0-7.999,3.417-8.303,7.742H45.562c-2.884,0-5.563,1.492-7.083,3.943c-1.52,2.451-1.663,5.514-0.379,8.099
	c15.47,31.13,39.384,59.344,69.276,81.858v66.05H90.048c-4.602,0-8.333,3.731-8.333,8.333S85.446,512,90.048,512h51.319
	c4.602,0,8.333-3.731,8.333-8.333s-3.731-8.333-8.333-8.333h-17.326v-66.051c25.453-19.17,46.555-42.477,61.814-68.198
	c15.258,25.721,36.361,49.028,61.812,68.198v66.05H230.34c-4.602,0-8.333,3.731-8.333,8.333s3.731,8.333,8.333,8.333h51.319
	c4.602,0,8.333-3.731,8.333-8.333s-3.731-8.333-8.333-8.333h-17.326v-66.05c25.453-19.17,46.555-42.477,61.813-68.198
	c15.258,25.721,36.361,49.028,61.814,68.198v66.05h-17.326c-4.602,0-8.333,3.731-8.333,8.333s3.731,8.333,8.333,8.333h51.319
	c4.602,0,8.333-3.731,8.333-8.333s-3.731-8.333-8.333-8.333h-17.326v-66.05C434.518,406.769,458.431,378.555,473.901,347.426z
	 M207.395,28.505c-2.668-3.885-5.19-7.832-7.549-11.839h112.307c-2.362,4.012-4.891,7.957-7.557,11.839H207.395z M444.889,363.888
	h-97.192c-2.665-3.882-5.194-7.827-7.557-11.839h112.306C450.084,356.061,447.555,360.007,444.889,363.888z M374.741,196.197
	h-97.191c-2.666-3.882-5.194-7.827-7.557-11.839h112.309C379.942,188.368,377.408,192.312,374.741,196.197z M242.007,184.358
	c-2.362,4.012-4.891,7.957-7.557,11.839h-97.192c-2.666-3.882-5.194-7.827-7.557-11.839H242.007z M149.969,212.863h71.769
	c-10.46,12.405-22.501,23.895-35.884,34.159C172.47,236.758,160.43,225.268,149.969,212.863z M194.187,261.592
	c25.452-19.17,46.555-42.477,61.812-68.198c15.259,25.721,36.361,49.028,61.814,68.198v66.05h-17.326
	c-4.402,0-7.999,3.417-8.303,7.742h-72.367c-0.304-4.325-3.901-7.742-8.303-7.742h-17.326L194.187,261.592L194.187,261.592z
	 M171.861,352.05c-2.362,4.012-4.891,7.957-7.557,11.839H67.112c-2.666-3.882-5.194-7.827-7.557-11.839H171.861z M115.708,414.715
	c-13.383-10.264-25.424-21.755-35.884-34.159h71.769C141.132,392.96,129.091,404.449,115.708,414.715z M256,414.715
	c-13.383-10.264-25.424-21.755-35.884-34.159h44.154c4.602,0,8.333-3.731,8.333-8.333c0-4.602-3.731-8.333-8.333-8.333h-56.866
	c-2.666-3.882-5.194-7.827-7.557-11.839h112.306c-2.362,4.012-4.891,7.957-7.557,11.839H289.27c-4.602,0-8.333,3.731-8.333,8.333
	c0,4.602,3.731,8.333,8.333,8.333h2.614C281.424,392.96,269.384,404.449,256,414.715z M360.408,380.554h71.769
	c-10.46,12.405-22.501,23.895-35.884,34.159C382.909,404.449,370.869,392.96,360.408,380.554z"/>
</svg>