<?xml version="1.0" encoding="iso-8859-1"?>
<!-- Uploaded to: SVG Repo, www.svgrepo.com, Generator: SVG Repo Mixer Tools -->
<svg xmlns="http://www.w3.org/2000/svg" xmlns:xlink="http://www.w3.org/1999/xlink" version="1.1" id="Layer_1"  viewBox="0 0 502 502" xml:space="preserve" width="512" height="512">
<g>
	<g>
		<polygon style="fill:#FBB03B;" points="137.853,246.817 155.449,492 334.547,492 352.143,246.817   "/>
		<path style="fill:#FBB03B;" d="M359.587,70.023c-36.637,0-66.452,29.123-67.607,65.479h68.152l-5.001,69.683    c1.474,0.096,2.957,0.162,4.455,0.162c37.369,0,67.662-30.293,67.662-67.662S396.955,70.023,359.587,70.023z"/>
		<path style="fill:#E6E6E6;" d="M291.925,137.685c0-0.732,0.032-1.456,0.055-2.183H129.864l7.989,111.315h214.291l2.988-41.632    C319.842,202.888,291.925,173.554,291.925,137.685z"/>
		<path style="fill:#FBB03B;" d="M291.98,135.502c-0.023,0.726-0.055,1.45-0.055,2.183c0,35.87,27.917,65.203,63.206,67.5    l5.001-69.683H291.98z"/>
	</g>
	<g>
		<path d="M184.189,414.734c-5.509,0.393-9.656,5.177-9.264,10.686l1.167,16.363c0.375,5.268,4.765,9.289,9.964,9.289    c0.239,0,0.479-0.008,0.721-0.025c5.509-0.393,9.656-5.177,9.264-10.686l-1.167-16.363    C194.482,418.489,189.694,414.341,184.189,414.734z"/>
		<path d="M437.249,137.685c0-42.823-34.839-77.662-77.662-77.662c-20.307,0-39.511,7.789-54.076,21.932    c-12.18,11.828-20,27.031-22.595,43.548H173.722L165.485,9.293c-0.298-4.21-3.208-7.779-7.271-8.92    c-4.062-1.141-8.405,0.391-10.852,3.829L66.604,117.699c-3.202,4.5-2.149,10.744,2.351,13.945    c4.499,3.204,10.743,2.151,13.945-2.35l64.605-90.796l6.167,87.003h-23.808c-2.776,0-5.428,1.154-7.32,3.187    s-2.854,4.76-2.655,7.529l7.99,111.314l17.596,245.184c0.375,5.231,4.729,9.284,9.974,9.284h179.098    c5.245,0,9.599-4.053,9.974-9.284l17.597-245.184l2.322-32.353C405.009,212.664,437.249,178.876,437.249,137.685z     M345.931,193.684c-22.841-5.562-40.255-24.743-43.464-48.182h46.922L345.931,193.684z M155.09,145.502l4.37,61.642    c0.374,5.269,4.764,9.294,9.965,9.293c0.237,0,0.477-0.008,0.717-0.025c5.509-0.391,9.659-5.173,9.268-10.682l-4.269-60.228    h107.178c3.427,33.919,28.9,61.778,62.166,68.355l-1.648,22.959H147.161l-6.554-91.314H155.09z M325.239,482H164.757    l-16.161-225.184h14.311l9.373,131.487c0.375,5.268,4.765,9.289,9.964,9.289c0.239,0,0.479-0.008,0.721-0.025    c5.509-0.393,9.656-5.177,9.264-10.686l-9.272-130.065H341.4L325.239,482z M365.888,195.005l4.219-58.787    c0.199-2.77-0.763-5.497-2.654-7.529s-4.543-3.187-7.32-3.187h-56.917c5.547-26.193,28.596-45.479,56.371-45.479    c31.795,0,57.662,25.867,57.662,57.662C417.249,167.351,394.73,191.856,365.888,195.005z"/>
	</g>
</g>















</svg>